<svg id="a01d" xmlns="http://www.w3.org/2000/svg" width="77.39" height="74" viewBox="0 0 77.39 74">
  <defs>
    <style>
      .cls-1 {
        fill: #baccd2;
      }

      .cls-2 {
        fill: #f7d552;
      }

      .cls-3 {
        fill: #02758d;
      }
    </style>
  </defs>
  <title>a01d</title>
  <path class="cls-1" d="M53.5,104.5h8s-3-9,5-10h39s8,2,2,10c0,0-1,4,2,4,0,0,11-3,9-17s-17-12-17-12,1-18-15-19-19,10-20,15C66.5,75.5,42.5,80.5,53.5,104.5Z" transform="translate(-50.61 -49)"/>
  <path class="cls-2" d="M128,70a2,2,0,0,1-2,2h-5c-.19.87-.43,1.72-.68,2.52a2,2,0,0,1,.6.34l3.83,3.21a2,2,0,0,1-1.28,3.54,2,2,0,0,1-1.29-.47l-3.33-2.79c-.46,1-.8,1.65-.8,1.65-5-5-13-5-13-5,0-12-8-17-8-17,.38-.15.75-.28,1.12-.41l-2.25-2.76A2,2,0,1,1,99,52.3l3.16,3.87a1.43,1.43,0,0,1,.14.2,25.38,25.38,0,0,1,2.73-.48V51a2,2,0,0,1,2-2,2,2,0,0,1,2,2v4.82a12.81,12.81,0,0,1,2.87.57l0-.06,3-4a2,2,0,0,1,2.79-.43,2,2,0,0,1,.82,1.62,2,2,0,0,1-.39,1.18l-2.58,3.51a16.41,16.41,0,0,1,3.38,3.28l3.78-3.09a2,2,0,1,1,2.53,3.1l-3.87,3.16a1.59,1.59,0,0,1-.43.26,10.32,10.32,0,0,1,.47,3.11H126A2,2,0,0,1,128,70Z" transform="translate(-50.61 -49)"/>
  <rect class="cls-3" x="14.39" y="49" width="40" height="5" rx="2.5"/>
  <rect class="cls-3" x="2.39" y="59" width="40" height="5" rx="2.5"/>
  <rect class="cls-3" x="8.39" y="69" width="40" height="5" rx="2.5"/>
  <rect class="cls-3" x="46.39" y="59" width="10" height="5" rx="2.5"/>
</svg>
