<svg id="c02d" xmlns="http://www.w3.org/2000/svg" width="97.03" height="76" viewBox="0 0 97.03 76">
  <defs>
    <style>
      .cls-1 {
        fill: #fceb0f;
      }

      .cls-2 {
        fill: #d9d9d9;
      }
    </style>
  </defs>
  <title>c02d</title>
  <circle class="cls-1" cx="27" cy="27" r="27"/>
  <path class="cls-2" d="M572,96s9-21,27-20,25,17,25,17,18,0,19,19-21,19-21,19H565s-16-4-13-23C552,108,556,96,572,96Z" transform="translate(-546 -55)"/>
  <path class="cls-2" d="M572,96s9-21,27-20,25,17,25,17,18,0,19,19-21,19-21,19H565s-16-4-13-23C552,108,556,96,572,96Z" transform="translate(-546 -55)"/>
  <path class="cls-2" d="M572,96s9-21,27-20,25,17,25,17,18,0,19,19-21,19-21,19H565s-16-4-13-23C552,108,556,96,572,96Z" transform="translate(-546 -55)"/>
</svg>
