<svg id="c03n" xmlns="http://www.w3.org/2000/svg" width="114" height="67.77" viewBox="0 0 114 67.77">
  <defs>
    <style>
      .cls-1 {
        fill: #f2eb8c;
      }

      .cls-2 {
        fill: #b2b2b2;
      }

      .cls-3 {
        fill: #d9d9d9;
      }
    </style>
  </defs>
  <title>c03n</title>
  <circle class="cls-1" cx="62.5" cy="32.27" r="30.5"/>
  <path class="cls-2" d="M983.05,78s8-18.61,23.93-17.73,22.15,15.07,22.15,15.07,15.95,0,16.84,16.83S1027.36,109,1027.36,109H976.85s-14.18-3.54-11.52-20.38C965.33,88.62,968.88,78,983.05,78Z" transform="translate(-965 -60.23)"/>
  <path class="cls-3" d="M1015,96.46s8.11-18.93,24.33-18,22.53,15.32,22.53,15.32,16.22,0,17.12,17.12S1060.05,128,1060.05,128h-51.37s-14.42-3.6-11.72-20.73C997,107.27,1000.57,96.46,1015,96.46Z" transform="translate(-965 -60.23)"/>
</svg>
