<svg id="c04d" xmlns="http://www.w3.org/2000/svg" width="92.69" height="68" viewBox="0 0 92.69 68">
  <defs>
    <style>
      .cls-1 {
        fill: #d9d9d9;
      }

      .cls-2 {
        fill: #b2b2b2;
      }
    </style>
  </defs>
  <title>c04d</title>
  <path class="cls-1" d="M1149,73.11s7.68-17.93,23-17.08,21.35,14.52,21.35,14.52,15.38,0,16.23,16.22S1191.73,103,1191.73,103h-48.68s-13.67-3.42-11.1-19.64C1132,83.36,1135.36,73.11,1149,73.11Z" transform="translate(-1117 -56)"/>
  <path class="cls-2" d="M1134.16,95.67s7.58-17,22.75-16.2S1178,93.24,1178,93.24s15.16,0,16,15.38S1176.28,124,1176.28,124h-48s-13.48-3.24-11-18.62C1117.32,105.38,1120.69,95.67,1134.16,95.67Z" transform="translate(-1117 -56)"/>
</svg>
