<svg id="c04n" xmlns="http://www.w3.org/2000/svg" width="92.69" height="68" viewBox="0 0 92.69 68">
  <defs>
    <style>
      .cls-1 {
        fill: #d9d9d9;
      }

      .cls-2 {
        fill: #b2b2b2;
      }
    </style>
  </defs>
  <title>c04n</title>
  <path class="cls-1" d="M1268,75.11s7.68-17.93,23-17.08,21.35,14.52,21.35,14.52,15.38,0,16.23,16.22S1310.73,105,1310.73,105h-48.68s-13.67-3.42-11.1-19.64C1251,85.36,1254.36,75.11,1268,75.11Z" transform="translate(-1236 -58)"/>
  <path class="cls-2" d="M1253.16,97.67s7.58-17,22.75-16.2S1297,95.24,1297,95.24s15.16,0,16,15.38S1295.28,126,1295.28,126h-48s-13.48-3.24-11-18.62C1236.32,107.38,1239.69,97.67,1253.16,97.67Z" transform="translate(-1236 -58)"/>
</svg>
