<svg id="d01d" xmlns="http://www.w3.org/2000/svg" width="69.58" height="72.99" viewBox="0 0 69.58 72.99">
  <defs>
    <style>
      .cls-1 {
        fill: #95abb3;
      }

      .cls-2 {
        fill: #fefdfb;
      }

      .cls-3 {
        fill: #6bc3de;
      }
    </style>
  </defs>
  <title>d01d</title>
  <path class="cls-1" d="M67,222s-22,1-15,24c0,0,0,4,10,9h47s13-4,11-20c0,0-4-13-17-10,0,0,3-19-16-21S67,222,67,222Z" transform="translate(-50.62 -203.86)"/>
  <path class="cls-2" d="M70,240.85a3,3,0,0,1-6,0,1.21,1.21,0,0,1,0-.19v0a3,3,0,0,1,1.51-2.4A23.35,23.35,0,0,0,67,233.85a13.26,13.26,0,0,0,1.61,4.47A3,3,0,0,1,70,240.85Z" transform="translate(-50.62 -203.86)"/>
  <path class="cls-2" d="M89,240.85a3,3,0,0,1-6,0,1.21,1.21,0,0,1,0-.19v0a3,3,0,0,1,1.51-2.4A23.35,23.35,0,0,0,86,233.85a13.26,13.26,0,0,0,1.61,4.47A3,3,0,0,1,89,240.85Z" transform="translate(-50.62 -203.86)"/>
  <path class="cls-2" d="M108,240.85a3,3,0,0,1-6,0,1.21,1.21,0,0,1,0-.19v0a3,3,0,0,1,1.51-2.4,23.35,23.35,0,0,0,1.48-4.39,13.26,13.26,0,0,0,1.61,4.47A3,3,0,0,1,108,240.85Z" transform="translate(-50.62 -203.86)"/>
  <path class="cls-2" d="M99,249.85a3,3,0,0,1-6,0,1.21,1.21,0,0,1,0-.19v0a3,3,0,0,1,1.51-2.4A23.35,23.35,0,0,0,96,242.85a13.26,13.26,0,0,0,1.61,4.47A3,3,0,0,1,99,249.85Z" transform="translate(-50.62 -203.86)"/>
  <path class="cls-2" d="M80,249.85a3,3,0,0,1-6,0,1.21,1.21,0,0,1,0-.19v0a3,3,0,0,1,1.51-2.4A23.35,23.35,0,0,0,77,242.85a13.26,13.26,0,0,0,1.61,4.47A3,3,0,0,1,80,249.85Z" transform="translate(-50.62 -203.86)"/>
  <path class="cls-3" d="M70,264.85a3,3,0,0,1-6,0,1.21,1.21,0,0,1,0-.19v0a3,3,0,0,1,1.51-2.4A23.35,23.35,0,0,0,67,257.85a13.26,13.26,0,0,0,1.61,4.47A3,3,0,0,1,70,264.85Z" transform="translate(-50.62 -203.86)"/>
  <path class="cls-3" d="M90,264.85a3,3,0,0,1-6,0,1.21,1.21,0,0,1,0-.19v0a3,3,0,0,1,1.51-2.4A23.35,23.35,0,0,0,87,257.85a13.26,13.26,0,0,0,1.61,4.47A3,3,0,0,1,90,264.85Z" transform="translate(-50.62 -203.86)"/>
  <path class="cls-3" d="M108,264.85a3,3,0,0,1-6,0,1.21,1.21,0,0,1,0-.19v0a3,3,0,0,1,1.51-2.4,23.35,23.35,0,0,0,1.48-4.39,13.26,13.26,0,0,0,1.61,4.47A3,3,0,0,1,108,264.85Z" transform="translate(-50.62 -203.86)"/>
  <path class="cls-3" d="M80,273.85a3,3,0,0,1-6,0,1.21,1.21,0,0,1,0-.19v0a3,3,0,0,1,1.51-2.4A23.35,23.35,0,0,0,77,266.85a13.26,13.26,0,0,0,1.61,4.47A3,3,0,0,1,80,273.85Z" transform="translate(-50.62 -203.86)"/>
  <path class="cls-3" d="M99,273.85a3,3,0,0,1-6,0,1.21,1.21,0,0,1,0-.19v0a3,3,0,0,1,1.51-2.4A23.35,23.35,0,0,0,96,266.85a13.26,13.26,0,0,0,1.61,4.47A3,3,0,0,1,99,273.85Z" transform="translate(-50.62 -203.86)"/>
</svg>
