<svg id="r03d" xmlns="http://www.w3.org/2000/svg" width="77.41" height="78.69" viewBox="0 0 77.41 78.69">
  <defs>
    <style>
      .cls-1 {
        fill: #798d90;
      }

      .cls-2 {
        fill: none;
        stroke: #fff;
        stroke-linecap: round;
        stroke-miterlimit: 10;
        stroke-width: 5px;
      }

      .cls-3 {
        fill: #4ec8dd;
      }
    </style>
  </defs>
  <title>r03n</title>
  <path class="cls-1" d="M301.72,219.48s-23.68,1.07-16.14,25.83c0,0,0,4.31,10.76,9.69h50.59s14-4.31,11.84-21.53c0,0-4.3-14-18.3-10.76,0,0,3.23-20.46-17.22-22.61S301.72,219.48,301.72,219.48Z" transform="translate(-284.09 -199.95)"/>
  <path class="cls-2" d="M359,237.5H331.28s-4.78,1-4.78,5,1.91,7,7.65,6" transform="translate(-284.09 -199.95)"/>
  <path class="cls-2" d="M355,228.5H315.14s-4.64-2-4.64-5,.93-7,6.49-6" transform="translate(-284.09 -199.95)"/>
  <rect class="cls-3" x="303" y="256" width="7" height="23" rx="3.5" transform="translate(-82.4 -325.53) rotate(33.96)"/>
  <rect class="cls-3" x="319" y="256" width="7" height="23" rx="3.5" transform="translate(-79.67 -334.47) rotate(33.96)"/>
  <rect class="cls-3" x="334" y="257" width="7" height="23" rx="3.5" transform="translate(-76.55 -342.68) rotate(33.96)"/>
</svg>
