<svg id="r05d" xmlns="http://www.w3.org/2000/svg" width="79" height="80" viewBox="0 0 79 80">
  <defs>
    <style>
      .cls-1 {
        fill: #798d90;
      }

      .cls-2 {
        fill: #b5ccd3;
      }

      .cls-3 {
        fill: #f7d552;
      }
    </style>
  </defs>
  <title>r05d</title>
  <path class="cls-1" d="M572.47,225.59s-22.13,1-15.09,23.57c0,0,0,3.93,10.06,8.84h47.28s13.08-3.93,11.07-19.64c0,0-4-12.77-17.1-9.82,0,0,3-18.66-16.1-20.62S572.47,225.59,572.47,225.59Z" transform="translate(-556 -197)"/>
  <circle class="cls-2" cx="18" cy="67" r="2"/>
  <circle class="cls-2" cx="16" cy="73" r="2"/>
  <circle class="cls-2" cx="14" cy="78" r="2"/>
  <circle class="cls-2" cx="27" cy="67" r="2"/>
  <circle class="cls-2" cx="25" cy="73" r="2"/>
  <circle class="cls-2" cx="23" cy="78" r="2"/>
  <circle class="cls-2" cx="37" cy="67" r="2"/>
  <circle class="cls-2" cx="35" cy="73" r="2"/>
  <circle class="cls-2" cx="33" cy="78" r="2"/>
  <circle class="cls-2" cx="47" cy="67" r="2"/>
  <circle class="cls-2" cx="45" cy="73" r="2"/>
  <circle class="cls-2" cx="43" cy="78" r="2"/>
  <circle class="cls-2" cx="56" cy="67" r="2"/>
  <circle class="cls-2" cx="54" cy="73" r="2"/>
  <circle class="cls-2" cx="52" cy="78" r="2"/>
  <path class="cls-3" d="M635,218a2,2,0,0,1-2,2h-5c-.19.87-.43,1.72-.68,2.52a2,2,0,0,1,.6.34l3.83,3.21a2,2,0,0,1-1.28,3.54,2,2,0,0,1-1.29-.47l-3.33-2.79c-.46,1-.8,1.65-.8,1.65-5-5-13-5-13-5,0-12-8-17-8-17,.38-.15.75-.28,1.12-.41l-2.25-2.76a2,2,0,1,1,3.1-2.53l3.16,3.87a1.43,1.43,0,0,1,.14.2,25.38,25.38,0,0,1,2.73-.48V199a2,2,0,0,1,2-2,2,2,0,0,1,2,2v4.82a12.81,12.81,0,0,1,2.87.57l0-.06,3-4a2,2,0,0,1,2.79-.43,2,2,0,0,1,.82,1.62,2,2,0,0,1-.39,1.18l-2.58,3.51a16.41,16.41,0,0,1,3.38,3.28l3.78-3.09a2,2,0,1,1,2.53,3.1l-3.87,3.16a1.59,1.59,0,0,1-.43.26,10.32,10.32,0,0,1,.47,3.11H633A2,2,0,0,1,635,218Z" transform="translate(-556 -197)"/>
</svg>
