<svg id="r04n" xmlns="http://www.w3.org/2000/svg" width="75.51" height="78.38" viewBox="0 0 75.51 78.38">
  <defs>
    <style>
      .cls-1 {
        fill: #85bfcd;
      }

      .cls-2 {
        fill: #fed046;
      }

      .cls-3 {
        fill: #798d90;
      }

      .cls-4 {
        fill: #b5ccd3;
      }
    </style>
  </defs>
  <title>r05n</title>
  <path class="cls-1" d="M488.22,196.62s-13,0-13,8c0,0,10,5,9,16,0,0,7,0,9,4,0,0,12.83-7,7-7C498.22,217.62,481.22,213.62,488.22,196.62Z" transform="translate(-427 -196.62)"/>
  <polygon class="cls-2" points="74.06 16.63 71.72 15.39 69.37 16.62 69.82 14.01 67.93 12.16 70.55 11.79 71.73 9.42 72.9 11.79 75.51 12.18 73.61 14.02 74.06 16.63"/>
  <path class="cls-3" d="M443.47,223.59s-22.13,1-15.09,23.57c0,0,0,3.93,10.06,8.84h47.28s13.08-3.93,11.07-19.64c0,0-4-12.77-17.1-9.82,0,0,3-18.66-16.1-20.62S443.47,223.59,443.47,223.59Z" transform="translate(-427 -196.62)"/>
  <circle class="cls-4" cx="18" cy="65.38" r="2"/>
  <circle class="cls-4" cx="16" cy="71.38" r="2"/>
  <circle class="cls-4" cx="14" cy="76.38" r="2"/>
  <circle class="cls-4" cx="27" cy="65.38" r="2"/>
  <circle class="cls-4" cx="25" cy="71.38" r="2"/>
  <circle class="cls-4" cx="23" cy="76.38" r="2"/>
  <circle class="cls-4" cx="37" cy="65.38" r="2"/>
  <circle class="cls-4" cx="35" cy="71.38" r="2"/>
  <circle class="cls-4" cx="33" cy="76.38" r="2"/>
  <circle class="cls-4" cx="47" cy="65.38" r="2"/>
  <circle class="cls-4" cx="45" cy="71.38" r="2"/>
  <circle class="cls-4" cx="43" cy="76.38" r="2"/>
  <circle class="cls-4" cx="56" cy="65.38" r="2"/>
  <circle class="cls-4" cx="54" cy="71.38" r="2"/>
  <circle class="cls-4" cx="52" cy="76.38" r="2"/>
</svg>
