<svg id="s01d" xmlns="http://www.w3.org/2000/svg" width="79" height="79.32" viewBox="0 0 79 79.32">
  <defs>
    <style>
      .cls-1 {
        fill: #90a9b1;
      }

      .cls-2 {
        fill: #f7d552;
      }

      .cls-3 {
        fill: #fffbf8;
      }
    </style>
  </defs>
  <title>s04d</title>
  <path class="cls-1" d="M690.1,225.59s-22.14,1-15.09,23.57c0,0,0,3.93,10.06,8.84h47.28s13.07-3.93,11.06-19.64c0,0-4-12.77-17.1-9.82,0,0,3-18.66-16.09-20.62S690.1,225.59,690.1,225.59Z" transform="translate(-673.62 -196.68)"/>
  <path class="cls-2" d="M752.62,217.68a2,2,0,0,1-2,2h-5c-.19.87-.43,1.72-.68,2.52a2,2,0,0,1,.6.34l3.83,3.21a2,2,0,0,1-1.28,3.54,2,2,0,0,1-1.29-.47L743.42,226c-.46,1-.8,1.65-.8,1.65-5-5-13-5-13-5,0-12-8-17-8-17,.38-.15.75-.28,1.12-.41l-2.25-2.76a2,2,0,1,1,3.1-2.53l3.16,3.87a1.43,1.43,0,0,1,.14.2,25.38,25.38,0,0,1,2.73-.48v-4.89a2,2,0,0,1,2-2,2,2,0,0,1,2,2v4.82a12.81,12.81,0,0,1,2.87.57l0-.06,3-4a2,2,0,0,1,2.79-.43,2,2,0,0,1,.82,1.62,2,2,0,0,1-.39,1.18l-2.58,3.51a16.41,16.41,0,0,1,3.38,3.28l3.78-3.09a2,2,0,1,1,2.53,3.1L746,212.31a1.59,1.59,0,0,1-.43.26,10.32,10.32,0,0,1,.47,3.11h4.63A2,2,0,0,1,752.62,217.68Z" transform="translate(-673.62 -196.68)"/>
  <circle class="cls-3" cx="28.38" cy="46.32" r="3"/>
  <circle class="cls-3" cx="42.38" cy="46.32" r="3"/>
  <circle class="cls-3" cx="21.38" cy="56.32" r="3"/>
  <circle class="cls-3" cx="35.38" cy="56.32" r="3"/>
  <circle class="cls-3" cx="49.38" cy="56.32" r="3"/>
  <circle class="cls-1" cx="27.38" cy="66.32" r="3"/>
  <circle class="cls-1" cx="42.38" cy="66.32" r="3"/>
  <circle class="cls-1" cx="21.38" cy="76.32" r="3"/>
  <circle class="cls-1" cx="35.38" cy="76.32" r="3"/>
  <circle class="cls-1" cx="49.38" cy="76.32" r="3"/>
</svg>
