<svg id="s01n" xmlns="http://www.w3.org/2000/svg" width="76.43" height="76" viewBox="0 0 76.43 76">
  <defs>
    <style>
      .cls-1 {
        fill: #788c8f;
      }

      .cls-2 {
        fill: #fffbf8;
      }

      .cls-3 {
        fill: #90a9b1;
      }

      .cls-4 {
        fill: #85bfcd;
      }

      .cls-5 {
        fill: #fed046;
      }
    </style>
  </defs>
  <title>s04n</title>
  <path class="cls-1" d="M810.1,222.59s-22.14,1-15.09,23.57c0,0,0,3.93,10.06,8.84h47.28s13.07-3.93,11.06-19.64c0,0-4-12.77-17.1-9.82,0,0,3-18.66-16.09-20.62S810.1,222.59,810.1,222.59Z" transform="translate(-793.62 -197)"/>
  <circle class="cls-2" cx="28.38" cy="43" r="3"/>
  <circle class="cls-2" cx="42.38" cy="43" r="3"/>
  <circle class="cls-2" cx="21.38" cy="53" r="3"/>
  <circle class="cls-2" cx="35.38" cy="53" r="3"/>
  <circle class="cls-2" cx="49.38" cy="53" r="3"/>
  <circle class="cls-3" cx="27.38" cy="63" r="3"/>
  <circle class="cls-3" cx="42.38" cy="63" r="3"/>
  <circle class="cls-3" cx="21.38" cy="73" r="3"/>
  <circle class="cls-3" cx="35.38" cy="73" r="3"/>
  <circle class="cls-3" cx="49.38" cy="73" r="3"/>
  <path class="cls-4" d="M855.76,197s-13,0-13,8c0,0,10,5,9,16,0,0,7,0,9,4,0,0,12.83-7,7-7C865.76,218,848.76,214,855.76,197Z" transform="translate(-793.62 -197)"/>
  <polygon class="cls-5" points="74.98 16.63 72.64 15.39 70.29 16.62 70.75 14.01 68.85 12.16 71.47 11.79 72.65 9.42 73.82 11.79 76.43 12.18 74.53 14.02 74.98 16.63"/>
</svg>
