<svg id="s05d" xmlns="http://www.w3.org/2000/svg" width="60.33" height="61.84" viewBox="0 0 60.33 61.84">
  <defs>
    <style>
      .cls-1, .cls-2 {
        fill: none;
        stroke: #12758d;
        stroke-linecap: round;
        stroke-miterlimit: 10;
      }

      .cls-1 {
        stroke-width: 4px;
      }

      .cls-2 {
        stroke-width: 3px;
      }

      .cls-3 {
        fill: #baccd2;
      }
    </style>
  </defs>
  <title>s05d</title>
  <path class="cls-1" d="M1081,252h-34s-3-1-3-4,1-5,4-5" transform="translate(-1033.39 -206.16)"/>
  <path class="cls-2" d="M1081.5,258.5h-22s-4,0-4,4,2,4,5,4" transform="translate(-1033.39 -206.16)"/>
  <path class="cls-3" d="M1037.5,246.5s0-9,11-10c0,0,8,3,4,9h31s3,3,2,4c0,0,12-6,7-19,0,0-4-8-14-5,0,0,4-16-13-19s-19,15-19,15S1024.5,224.5,1037.5,246.5Z" transform="translate(-1033.39 -206.16)"/>
</svg>
