<svg id="s06d" xmlns="http://www.w3.org/2000/svg" width="70" height="68.22" viewBox="0 0 70 68.22">
  <defs>
    <style>
      .cls-1 {
        fill: #90a9b1;
      }

      .cls-2 {
        fill: #fffbf8;
      }
    </style>
  </defs>
  <title>s06d</title>
  <path class="cls-1" d="M111.33,553.43s-22.13,1-15.09,23.57c0,0,0,3.93,10.06,8.84h47.28s13.08-3.93,11.07-19.64c0,0-4-12.77-17.1-9.82,0,0,3-18.66-16.1-20.62S111.33,553.43,111.33,553.43Z" transform="translate(-94.86 -535.62)"/>
  <circle class="cls-2" cx="28.38" cy="35.22" r="3"/>
  <circle class="cls-2" cx="42.38" cy="35.22" r="3"/>
  <circle class="cls-2" cx="21.38" cy="45.22" r="3"/>
  <circle class="cls-2" cx="35.38" cy="45.22" r="3"/>
  <circle class="cls-2" cx="49.38" cy="45.22" r="3"/>
  <circle class="cls-1" cx="27.38" cy="55.22" r="3"/>
  <circle class="cls-1" cx="42.38" cy="55.22" r="3"/>
  <circle class="cls-1" cx="21.38" cy="65.22" r="3"/>
  <circle class="cls-1" cx="35.38" cy="65.22" r="3"/>
  <circle class="cls-1" cx="49.38" cy="65.22" r="3"/>
</svg>
