<svg id="t01n" xmlns="http://www.w3.org/2000/svg" width="74.12" height="82.55" viewBox="0 0 74.12 82.55">
  <defs>
    <style>
      .cls-1 {
        fill: #90a9b1;
      }

      .cls-2 {
        fill: #d5ac1a;
      }

      .cls-3 {
        fill: #4ec8dd;
      }

      .cls-4 {
        fill: #85bfcd;
      }

      .cls-5 {
        fill: #fed046;
      }
    </style>
  </defs>
  <title>t01n</title>
  <path class="cls-1" d="M1252,254l5-15s2-4,5-4h10s5,1,4,5a26.63,26.63,0,0,1-4,8s6,0,7,2,2,5,0,7h21s13-6,11-17-10-13-16-12c0,0,1-18-13-20s-23,8-23,16c0,0-14,1-16,13S1248,252,1252,254Z" transform="translate(-1242.65 -199.88)"/>
  <polyline class="cls-2" points="18.85 39.62 12.85 58.62 20.85 58.62 13.85 77.62 33.85 53.62 22.85 53.62 29.85 39.62 18.85 39.62"/>
  <rect class="cls-3" x="1273.79" y="259.95" width="7" height="23" rx="3.5" transform="translate(-1062.53 -636.51) rotate(20.84)"/>
  <rect class="cls-3" x="1288.62" y="257.52" width="7" height="23" rx="3.5" transform="translate(-1062.42 -641.94) rotate(20.84)"/>
  <path class="cls-4" d="M1302.47,199.88s-13,0-13,8c0,0,10,5,9,16,0,0,7,0,9,4,0,0,12.83-7,7-7C1312.47,220.88,1295.47,216.88,1302.47,199.88Z" transform="translate(-1242.65 -199.88)"/>
  <polygon class="cls-5" points="72.66 16.63 70.32 15.39 67.97 16.62 68.43 14.01 66.54 12.16 69.16 11.79 70.33 9.42 71.5 11.79 74.12 12.18 72.22 14.02 72.66 16.63"/>
</svg>
