<svg id="t01d" xmlns="http://www.w3.org/2000/svg" width="78.35" height="85.43" viewBox="0 0 78.35 85.43">
  <defs>
    <style>
      .cls-1 {
        fill: #90a9b1;
      }

      .cls-2 {
        fill: #d5ac1a;
      }

      .cls-3 {
        fill: #4ec8dd;
      }

      .cls-4 {
        fill: #f7d552;
      }
    </style>
  </defs>
  <title>t01d</title>
  <path class="cls-1" d="M1148,254l5-15s2-4,5-4h10s5,1,4,5a26.63,26.63,0,0,1-4,8s6,0,7,2,2,5,0,7h21s13-6,11-17-10-13-16-12c0,0,1-18-13-20s-23,8-23,16c0,0-14,1-16,13S1144,252,1148,254Z" transform="translate(-1138.65 -197)"/>
  <polyline class="cls-2" points="18.85 42.5 12.85 61.5 20.85 61.5 13.85 80.5 33.85 56.5 22.85 56.5 29.85 42.5 18.85 42.5"/>
  <rect class="cls-3" x="1169.79" y="259.95" width="7" height="23" rx="3.5" transform="translate(-965.33 -596.63) rotate(20.84)"/>
  <rect class="cls-3" x="1184.62" y="257.52" width="7" height="23" rx="3.5" transform="translate(-965.23 -602.06) rotate(20.84)"/>
  <path class="cls-4" d="M1217,218a2,2,0,0,1-2,2h-5c-.19.87-.43,1.72-.68,2.52a2,2,0,0,1,.6.34l3.83,3.21a2,2,0,0,1-1.28,3.54,2,2,0,0,1-1.29-.47l-3.33-2.79c-.46,1-.8,1.65-.8,1.65-5-5-13-5-13-5,0-12-8-17-8-17,.38-.15.75-.28,1.12-.41l-2.25-2.76a2,2,0,1,1,3.1-2.53l3.16,3.87a1.43,1.43,0,0,1,.14.2,25.38,25.38,0,0,1,2.73-.48V199a2,2,0,0,1,2-2,2,2,0,0,1,2,2v4.82a12.81,12.81,0,0,1,2.87.57l0-.06,3-4a2,2,0,0,1,2.79-.43,2,2,0,0,1,.82,1.62,2,2,0,0,1-.39,1.18l-2.58,3.51a16.41,16.41,0,0,1,3.38,3.28l3.78-3.09a2,2,0,1,1,2.53,3.1l-3.87,3.16a1.59,1.59,0,0,1-.43.26,10.32,10.32,0,0,1,.47,3.11H1215A2,2,0,0,1,1217,218Z" transform="translate(-1138.65 -197)"/>
</svg>
