<svg id="t04n" xmlns="http://www.w3.org/2000/svg" width="72.53" height="88.24" viewBox="0 0 72.53 88.24">
  <defs>
    <style>
      .cls-1 {
        fill: #798d90;
      }

      .cls-2 {
        fill: #a9880f;
      }

      .cls-3 {
        fill: #d9b021;
      }

      .cls-4 {
        fill: #85bfcd;
      }

      .cls-5 {
        fill: #fed046;
      }
    </style>
  </defs>
  <title>t04n</title>
  <path class="cls-1" d="M174,361s-16,0-16,16,13,17,13,17l3-11s1-3,7-3h10s3,1,3,3c0,0,3-11,9-11a31.39,31.39,0,0,1,9,1s5,6,0,10c0,0,12,4,2,12,0,0,15-1,14-19,0,0-1-13-18-12,0,0,1-18-13-20C197,344,179,338,174,361Z" transform="translate(-158 -334.76)"/>
  <polyline class="cls-2" points="20 50.23 14 69.23 22 69.23 15 88.23 35 64.23 24 64.23 31 50.23 20 50.23"/>
  <polyline class="cls-3" points="42.14 41.23 37 57.52 43.86 57.52 37.86 73.81 55 53.23 45.57 53.23 51.57 41.23 42.14 41.23"/>
  <path class="cls-4" d="M216.23,334.76s-13,0-13,8c0,0,10,5,9,16,0,0,7,0,9,4,0,0,12.83-7,7-7C226.23,355.76,209.23,351.76,216.23,334.76Z" transform="translate(-158 -334.76)"/>
  <polygon class="cls-5" points="71.07 16.63 68.73 15.39 66.39 16.62 66.84 14.01 64.95 12.16 67.57 11.79 68.75 9.42 69.91 11.79 72.53 12.18 70.63 14.02 71.07 16.63"/>
</svg>
