<svg id="t04d" xmlns="http://www.w3.org/2000/svg" width="70.05" height="79.71" viewBox="0 0 70.05 79.71">
  <defs>
    <style>
      .cls-1 {
        fill: #798d90;
      }

      .cls-2 {
        fill: #a9880f;
      }

      .cls-3 {
        fill: #d9b021;
      }
    </style>
  </defs>
  <title>t05d</title>
  <path class="cls-1" d="M71,357s-16,0-16,16,13,17,13,17l3-11s1-3,7-3H88s3,1,3,3c0,0,3-11,9-11a31.39,31.39,0,0,1,9,1s5,6,0,10c0,0,12,4,2,12,0,0,15-1,14-19,0,0-1-13-18-12,0,0,1-18-13-20C94,340,76,334,71,357Z" transform="translate(-55 -339.29)"/>
  <polyline class="cls-2" points="20 41.7 14 60.7 22 60.7 15 79.7 35 55.7 24 55.7 31 41.7 20 41.7"/>
  <polyline class="cls-3" points="42.14 32.7 37 48.99 43.86 48.99 37.86 65.28 55 44.7 45.57 44.7 51.57 32.7 42.14 32.7"/>
</svg>
